<svg
          xmlns="http://www.w3.org/2000/svg"
          width="16"
          height="16"
          viewBox="0 0 16 16"
          fill="none">
          <path
            d="M0.72736 16H15.2726C15.3769 16 15.4799 15.9776 15.5747 15.9343C15.6696 15.8911 15.754 15.8279 15.8223 15.7491C15.8906 15.6703 15.9411 15.5778 15.9705 15.4778C15.9999 15.3778 16.0074 15.2727 15.9926 15.1695L14.5381 4.98764C14.5133 4.8144 14.4267 4.65593 14.2945 4.54132C14.1623 4.4267 13.9931 4.36361 13.8181 4.36364H11.6363V3.63636C11.6363 2.67194 11.2532 1.74702 10.5713 1.06507C9.88934 0.383113 8.9644 0 7.99998 0C7.03563 0 6.11068 0.383113 5.42874 1.06507C4.7468 1.74702 4.36368 2.67194 4.36368 3.63636V4.36364H2.18189C2.00689 4.36361 1.83774 4.4267 1.70549 4.54132C1.57323 4.65593 1.48675 4.8144 1.4619 4.98764L0.00736887 15.1695C-0.00743096 15.2727 0.000118035 15.3778 0.029514 15.4778C0.0589101 15.5778 0.109462 15.6703 0.177745 15.7491C0.246028 15.8279 0.330441 15.8911 0.425269 15.9343C0.520097 15.9776 0.623121 16 0.72736 16ZM5.81821 3.63636C5.81821 3.05771 6.04807 2.50276 6.45724 2.09359C6.86639 1.68441 7.42137 1.45455 7.99998 1.45455C8.57866 1.45455 9.13356 1.68441 9.5428 2.09359C9.95195 2.50276 10.1818 3.05771 10.1818 3.63636V4.36364H5.81821V3.63636ZM2.81243 5.81818H4.36368V8C4.36368 8.19287 4.4403 8.37789 4.5767 8.51425C4.71308 8.65062 4.89807 8.72727 5.09094 8.72727C5.28383 8.72727 5.46881 8.65062 5.6052 8.51425C5.74159 8.37789 5.81821 8.19287 5.81821 8V5.81818H10.1818V8C10.1818 8.19287 10.2584 8.37789 10.3948 8.51425C10.5312 8.65062 10.7162 8.72727 10.909 8.72727C11.102 8.72727 11.2869 8.65062 11.4233 8.51425C11.5597 8.37789 11.6363 8.19287 11.6363 8V5.81818H13.1876L14.4341 14.5455H1.5659L2.81243 5.81818Z"
            fill="white"
          />
        </svg>