<svg width="14" height="14" viewBox="0 0 14 14" fill="none" xmlns="http://www.w3.org/2000/svg">
<rect width="14" height="14" rx="7" fill="#BBBBBB"/>
<path d="M4.37883 4C4.283 4 4.1828 4.03223 4.10967 4.1053C3.96344 4.25182 3.96344 4.49764 4.10967 4.64416L6.46172 6.99785L4.10967 9.35153C3.96344 9.49805 3.96344 9.74387 4.10967 9.89039C4.25593 10.0365 4.50172 10.0365 4.64798 9.89039L7 7.53671L9.35202 9.89039C9.49828 10.0365 9.74407 10.0365 9.89033 9.89039C10.0366 9.74387 10.0366 9.49805 9.89033 9.35153L7.53828 6.99785L9.89033 4.64416C10.0366 4.49764 10.0366 4.25182 9.89033 4.1053C9.8172 4.03223 9.71696 4 9.62118 4C9.52535 4 9.42519 4.03223 9.35202 4.1053L7 6.45899L4.64798 4.1053C4.57485 4.03223 4.47465 4 4.37883 4Z" fill="white"/>
</svg>
